<svg xmlns="http://www.w3.org/2000/svg" width="41" height="41" viewBox="0 0 41 41" fill="none">
  <path d="M1.33887 8.46851C1.33887 4.32637 4.69673 0.968506 8.83887 0.968506H32.8389C36.981 0.968506 40.3389 4.32637 40.3389 8.46851V32.4685C40.3389 36.6106 36.981 39.9685 32.8389 39.9685H8.83887C4.69673 39.9685 1.33887 36.6106 1.33887 32.4685V8.46851Z" fill="#FDFDFD" stroke="#E9E9E9"/>
  <path d="M14.4966 22.8631L13.6439 26.5431C13.5843 26.8155 13.6509 27.1003 13.8251 27.3181C13.9994 27.5358 14.2626 27.6633 14.5415 27.665C14.6056 27.6715 14.6703 27.6715 14.7344 27.665L18.4368 26.8123L25.5454 19.7307L21.5782 15.7725L14.4966 22.8631Z" fill="black"/>
  <path d="M27.7803 16.1853L25.1325 13.5375C24.7701 13.1769 24.1845 13.1769 23.8221 13.5375L22.3501 15.0095L26.3128 18.9722L27.7848 17.5002C27.9587 17.3253 28.056 17.0885 28.0552 16.8418C28.0543 16.5952 27.9554 16.359 27.7803 16.1853Z" fill="black"/>
</svg>