<svg xmlns="http://www.w3.org/2000/svg" width="19" height="19" viewBox="0 0 19 19" fill="none">
  <path fill-rule="evenodd" clip-rule="evenodd" d="M13.908 0.479492H5.95402C3.20847 0.479492 0.982758 2.70128 0.982758 5.44198V13.382C0.982758 16.1227 3.20847 18.3445 5.95402 18.3445H13.908C16.6536 18.3445 18.8793 16.1227 18.8793 13.382V5.44198C18.8793 2.70128 16.6536 0.479492 13.908 0.479492ZM17.1393 13.382C17.1339 15.1611 15.6903 16.6021 13.908 16.6076H5.95402C4.17167 16.6021 2.72816 15.1611 2.7227 13.382V5.44198C2.72816 3.66278 4.17167 2.22181 5.95402 2.21636H13.908C15.6903 2.22181 17.1339 3.66278 17.1393 5.44198V13.382ZM14.6537 5.69011C15.2028 5.69011 15.648 5.24575 15.648 4.69761C15.648 4.14947 15.2028 3.70511 14.6537 3.70511C14.1046 3.70511 13.6595 4.14947 13.6595 4.69761C13.6595 5.24575 14.1046 5.69011 14.6537 5.69011ZM9.93102 4.94573C7.46003 4.94573 5.45689 6.94534 5.45689 9.41198C5.45689 11.8786 7.46003 13.8782 9.93102 13.8782C12.402 13.8782 14.4052 11.8786 14.4052 9.41198C14.4078 8.22663 13.9373 7.0891 13.0976 6.25095C12.258 5.41279 11.1185 4.94309 9.93102 4.94573ZM7.19683 9.41198C7.19683 10.9194 8.42095 12.1413 9.93102 12.1413C11.4411 12.1413 12.6652 10.9194 12.6652 9.41198C12.6652 7.90457 11.4411 6.68261 9.93102 6.68261C8.42095 6.68261 7.19683 7.90457 7.19683 9.41198Z" fill="#2B2D32"/>
</svg>