<svg xmlns="http://www.w3.org/2000/svg" width="9" height="16" viewBox="0 0 9 16" fill="none">
  <g clip-path="url(#clip0_257_972)">
    <path fill-rule="evenodd" clip-rule="evenodd" d="M8.81923 0.180771C8.76207 0.123469 8.69417 0.0780065 8.61942 0.0469869C8.54466 0.0159672 8.46452 0 8.38359 0C8.30265 0 8.22251 0.0159672 8.14776 0.0469869C8.073 0.0780065 8.0051 0.123469 7.94795 0.180771L0.564198 7.56452C0.506896 7.62168 0.461432 7.68958 0.430413 7.76433C0.399394 7.83909 0.383427 7.91923 0.383427 8.00016C0.383427 8.0811 0.399394 8.16123 0.430413 8.23599C0.461432 8.31074 0.506896 8.37864 0.564198 8.4358L7.94795 15.8196C8.06349 15.9351 8.22019 16 8.38359 16C8.54699 16 8.70369 15.9351 8.81923 15.8196C8.93477 15.704 8.99968 15.5473 8.99968 15.3839C8.99968 15.2205 8.93477 15.0638 8.81923 14.9483L1.86989 8.00016L8.81923 1.05205C8.87653 0.994896 8.92199 0.926996 8.95301 0.852242C8.98403 0.777487 9 0.697347 9 0.616412C9 0.535478 8.98403 0.455338 8.95301 0.380583C8.92199 0.305829 8.87653 0.237928 8.81923 0.180771Z" fill="#1967AE"/>
  </g>
  <defs>
    <clipPath id="clip0_257_972">
      <rect width="9" height="16" fill="white" transform="matrix(-1 0 0 1 9 0)"/>
    </clipPath>
  </defs>
</svg>