<svg xmlns="http://www.w3.org/2000/svg" width="19" height="19" viewBox="0 0 19 19" fill="none">
  <path fill-rule="evenodd" clip-rule="evenodd" d="M2.47414 0.65918C1.65047 0.65918 0.982758 1.32571 0.982758 2.14793V17.0354C0.982758 17.8576 1.65047 18.5241 2.47414 18.5241H17.3879C18.2115 18.5241 18.8793 17.8576 18.8793 17.0354V2.14793C18.8793 1.32571 18.2115 0.65918 17.3879 0.65918H2.47414ZM6.47178 4.63187C6.47738 5.58095 5.76572 6.16575 4.92122 6.16156C4.12566 6.15737 3.43217 5.52512 3.43636 4.63327C3.44056 3.79445 4.10469 3.12033 4.96736 3.13987C5.84261 3.15941 6.47738 3.80004 6.47178 4.63187ZM10.2091 7.37021H7.70361H7.70221V15.8658H10.3503V15.6676C10.3503 15.2906 10.35 14.9134 10.3497 14.5362C10.3489 13.53 10.348 12.5227 10.3532 11.5168C10.3546 11.2726 10.3657 11.0186 10.4286 10.7854C10.6649 9.91452 11.4493 9.35207 12.3246 9.49033C12.8866 9.57817 13.2585 9.90341 13.4151 10.4324C13.5116 10.7631 13.555 11.119 13.5591 11.4638C13.5705 12.5036 13.5689 13.5433 13.5673 14.5831C13.5667 14.9502 13.5661 15.3174 13.5661 15.6844V15.8644H16.2226V15.6607C16.2226 15.2121 16.2224 14.7636 16.2222 14.3151C16.2217 13.194 16.2211 12.073 16.224 10.9516C16.2254 10.4449 16.1709 9.94529 16.0465 9.45539C15.8605 8.7268 15.4761 8.12386 14.8511 7.68845C14.4078 7.37858 13.9213 7.179 13.3774 7.15667C13.3155 7.1541 13.253 7.15073 13.1903 7.14735C12.9122 7.13234 12.6295 7.1171 12.3637 7.17062C11.6031 7.32275 10.9348 7.67029 10.43 8.28296C10.3714 8.35322 10.314 8.42458 10.2284 8.53108L10.2091 8.5552V7.37021ZM3.64898 15.8686H6.28453V7.37574H3.64898V15.8686Z" fill="#2B2D32"/>
</svg>