<svg width="447" height="441" viewBox="0 0 447 441" fill="none" xmlns="http://www.w3.org/2000/svg">
<path d="M323.66 15.2629C330.838 15.8447 337.376 19.6191 341.469 25.5448L442.675 172.069C446.838 178.097 448.021 185.696 445.885 192.704L394.769 360.444C392.613 367.52 387.315 373.206 380.409 375.855L215.558 439.11C208.799 441.704 201.23 441.108 194.961 437.488L40.161 348.114C33.8912 344.494 29.5905 338.238 28.457 331.087L0.811849 156.695C-0.346224 149.389 1.92893 141.958 6.97834 136.553L126.687 8.41565C131.689 3.06219 138.861 0.286256 146.164 0.878051L323.66 15.2629Z" fill="#749BD9"/>
</svg>
