<svg xmlns="http://www.w3.org/2000/svg" width="27" height="24" viewBox="0 0 27 24" fill="none">
  <path d="M15.7227 3.50989L17.6247 7.02989C17.8841 7.51989 18.5757 7.98989 19.1593 8.07989L22.6067 8.60989C24.8113 8.94989 25.3301 10.4299 23.7415 11.8899L21.0613 14.3699C20.6074 14.7899 20.3589 15.5999 20.4994 16.1799L21.2667 19.2499C21.8719 21.6799 20.4778 22.6199 18.1543 21.3499L14.923 19.5799C14.3394 19.2599 13.3776 19.2599 12.7832 19.5799L9.55197 21.3499C7.23929 22.6199 5.83439 21.6699 6.43958 19.2499L7.20687 16.1799C7.34736 15.5999 7.0988 14.7899 6.64491 14.3699L3.9648 11.8899C2.38699 10.4299 2.89491 8.94989 5.09952 8.60989L8.54693 8.07989C9.1197 7.98989 9.81134 7.51989 10.0707 7.02989L11.9727 3.50989C13.0102 1.59989 14.6961 1.59989 15.7227 3.50989Z" stroke="#1967AE" stroke-width="1.5" stroke-linecap="round" stroke-linejoin="round"/>
</svg>