<svg xmlns="http://www.w3.org/2000/svg" width="24" height="24" viewBox="0 0 24 24" fill="none">
  <path opacity="0.4" d="M21.08 8.58003V15.42C21.08 16.54 20.48 17.58 19.51 18.15L13.57 21.58C12.6 22.14 11.4 22.14 10.42 21.58L4.48003 18.15C3.51003 17.59 2.91003 16.55 2.91003 15.42V8.58003C2.91003 7.46003 3.51003 6.41999 4.48003 5.84999L10.42 2.42C11.39 1.86 12.59 1.86 13.57 2.42L19.51 5.84999C20.48 6.41999 21.08 7.45003 21.08 8.58003Z" fill="#292D32"/>
  <path d="M12 12.0001C13.2869 12.0001 14.33 10.9569 14.33 9.67004C14.33 8.38322 13.2869 7.34009 12 7.34009C10.7132 7.34009 9.67004 8.38322 9.67004 9.67004C9.67004 10.9569 10.7132 12.0001 12 12.0001Z" fill="#292D32"/>
  <path d="M14.68 16.6601C15.49 16.6601 15.96 15.7601 15.51 15.0901C14.83 14.0801 13.51 13.4001 12 13.4001C10.49 13.4001 9.17004 14.0801 8.49004 15.0901C8.04004 15.7601 8.51004 16.6601 9.32004 16.6601H14.68Z" fill="#292D32"/>
</svg>