<svg xmlns="http://www.w3.org/2000/svg" width="48" height="48" viewBox="0 0 48 48" fill="current">
  <path opacity="0.4" d="M32.48 7.30005H15.52C10.58 7.30005 6.57996 11.32 6.57996 16.24V35.0601C6.57996 39.98 10.6 44 15.52 44H32.46C37.4 44 41.4 39.98 41.4 35.0601V16.24C41.42 11.3 37.4 7.30005 32.48 7.30005Z" fill="#1967AE"/>
  <path d="M28.7 4H19.3C17.22 4 15.52 5.68 15.52 7.76V9.64C15.52 11.72 17.2 13.4 19.28 13.4H28.7C30.78 13.4 32.46 11.72 32.46 9.64V7.76C32.48 5.68 30.78 4 28.7 4Z" fill="#1967AE"/>
  <path d="M21.62 33.9C21.24 33.9 20.86 33.76 20.56 33.46L17.56 30.46C16.98 29.88 16.98 28.92 17.56 28.34C18.14 27.76 19.1 27.76 19.68 28.34L21.62 30.28L28.56 23.34C29.14 22.76 30.1 22.76 30.68 23.34C31.26 23.92 31.26 24.88 30.68 25.46L22.68 33.46C22.4 33.76 22 33.9 21.62 33.9Z" fill="#1967AE"/>
</svg>