<svg xmlns="http://www.w3.org/2000/svg" width="48" height="48" viewBox="0 0 48 48" fill="none">
  <path opacity="0.4" d="M32.48 7.30005H15.52C10.58 7.30005 6.58002 11.32 6.58002 16.24V35.0601C6.58002 39.98 10.6 44 15.52 44H32.46C37.4 44 41.4 39.98 41.4 35.0601V16.24C41.42 11.3 37.4 7.30005 32.48 7.30005Z" fill="#1967AE"/>
  <path d="M28.7 4H19.3C17.22 4 15.52 5.68 15.52 7.76V9.64C15.52 11.72 17.2 13.4 19.28 13.4H28.7C30.78 13.4 32.46 11.72 32.46 9.64V7.76C32.48 5.68 30.78 4 28.7 4Z" fill="#1967AE"/>
  <path d="M31.06 32.94L21.62 23.5H24C24.82 23.5 25.5 22.82 25.5 22C25.5 21.18 24.82 20.5 24 20.5H18C17.18 20.5 16.5 21.18 16.5 22V28C16.5 28.82 17.18 29.5 18 29.5C18.82 29.5 19.5 28.82 19.5 28V25.62L28.94 35.06C29.24 35.36 29.62 35.5 30 35.5C30.38 35.5 30.76 35.36 31.06 35.06C31.64 34.48 31.64 33.52 31.06 32.94Z" fill="#1967AE"/>
</svg>