<svg xmlns="http://www.w3.org/2000/svg" width="48" height="48" viewBox="0 0 48 48" fill="none">
  <path opacity="0.4" d="M42 14V34C42 40 39 44 32 44H16C9 44 6 40 6 34V14C6 8 9 4 16 4H32C39 4 42 8 42 14Z" fill="#1967AE"/>
  <path d="M37 18.5H33C29.96 18.5 27.5 16.04 27.5 13V9C27.5 8.18 28.18 7.5 29 7.5C29.82 7.5 30.5 8.18 30.5 9V13C30.5 14.38 31.62 15.5 33 15.5H37C37.82 15.5 38.5 16.18 38.5 17C38.5 17.82 37.82 18.5 37 18.5Z" fill="#1967AE"/>
  <path d="M14.96 30.9799C14.3 28.9199 15.08 26.38 17.22 25.68C18.36 25.32 19.76 25.6199 20.54 26.7199C21.28 25.5799 22.74 25.32 23.86 25.68C26.02 26.38 26.78 28.9199 26.14 30.9799C25.12 34.2399 21.54 35.9399 20.54 35.9399C19.56 35.9199 16.02 34.2599 14.96 30.9799Z" fill="#1967AE"/>
</svg>