<svg xmlns="http://www.w3.org/2000/svg" width="33" height="24" viewBox="0 0 33 24" fill="none">
  <path fill-rule="evenodd" clip-rule="evenodd" d="M0 2.75C0 1.64543 0.895431 0.75 2 0.75H30.5C31.6046 0.75 32.5 1.64543 32.5 2.75V21.25C32.5 22.3546 31.6046 23.25 30.5 23.25H2C0.89543 23.25 0 22.3546 0 21.25V2.75Z" fill="#1B9D00"/>
  <path fill-rule="evenodd" clip-rule="evenodd" d="M8.05952 6.77517C8.02259 7.27177 7.97832 8.14573 8.4015 8.23536C8.91336 8.28444 8.6311 7.37154 8.81639 7.20601C8.85141 7.12422 8.91599 7.1238 8.92132 7.22697V8.00129C8.91665 8.25313 9.08267 8.32729 9.21162 8.37931C9.34587 8.36897 9.43547 8.37345 9.48806 8.50365L9.55102 9.84307C9.55102 9.84307 9.86231 9.93192 9.87714 9.08968C9.892 8.5952 9.77803 8.18127 9.84486 8.08503C9.8472 7.99049 9.96828 7.98485 10.0522 8.03093C10.1861 8.12501 10.2456 8.24122 10.4536 8.19476C10.77 8.10782 10.9602 7.95437 10.9648 7.71215C10.9463 7.48194 10.9204 7.25172 10.8204 7.0215C10.8344 6.97961 10.7593 6.87116 10.7732 6.82927C10.8301 6.91808 10.9166 6.91069 10.9363 6.82927C10.8825 6.65236 10.7989 6.48285 10.6634 6.40944C10.5515 6.31113 10.3877 6.33122 10.3277 6.53632C10.2999 6.77264 10.4131 7.05343 10.5857 7.28232C10.6223 7.37175 10.6739 7.52034 10.6512 7.65415C10.5594 7.70642 10.4675 7.68463 10.3906 7.60363C10.3906 7.60363 10.1388 7.4153 10.1388 7.37345C10.2056 6.94681 10.1536 6.89844 10.1166 6.78003C10.0907 6.61658 10.0129 6.56418 9.94988 6.45254C9.88688 6.38594 9.80164 6.38594 9.76092 6.45254C9.64958 6.64497 9.7015 7.058 9.78191 7.24304C9.84003 7.41318 9.92881 7.51997 9.88684 7.51997C9.85232 7.61612 9.78091 7.59391 9.72894 7.48293C9.65474 7.25355 9.63988 6.91127 9.63988 6.7572C9.61764 6.56609 9.59316 6.15851 9.46704 6.05496C9.39009 5.9505 9.27604 6.00144 9.23619 6.09681C9.2279 6.28647 9.22703 6.47608 9.24847 6.65087C9.33496 6.9574 9.36215 7.22697 9.40412 7.54089C9.41578 7.96139 9.16028 7.72332 9.17194 7.51486C9.23086 7.24408 9.21558 6.81786 9.1632 6.70983C9.12172 6.6018 9.07272 6.57514 8.97178 6.59291C8.89163 6.58805 8.68539 6.81258 8.62747 7.18504C8.62747 7.18504 8.57809 7.37677 8.55706 7.547C8.52875 7.73935 8.40175 7.87511 8.31264 7.51993C8.23569 7.26181 8.18839 6.62629 8.05948 6.77513L8.05952 6.77517Z" fill="white"/>
  <path fill-rule="evenodd" clip-rule="evenodd" d="M9.45004 8.81299C8.99835 9.03316 8.56151 9.23855 8.11719 9.45133C8.13343 9.15008 8.75089 8.60627 9.17194 8.59863C9.446 8.60627 9.37713 8.7045 9.45004 8.81303V8.81299Z" fill="white"/>
  <path fill-rule="evenodd" clip-rule="evenodd" d="M9.21809 9.22969C8.51565 11.0352 10.863 11.2867 11.1254 9.30363C11.15 9.22226 11.249 9.14088 11.2663 9.27403C11.2119 11.0696 9.45065 11.193 9.15135 10.6281C9.07719 10.495 9.05487 10.199 9.04746 10.0214C9.0029 9.6687 8.81744 9.80434 8.78776 10.1545C8.75803 10.3494 8.76548 10.4037 8.76548 10.5911C8.85946 12.0094 11.1279 11.4002 11.4964 10.2286C11.6919 9.57985 11.4643 9.1014 11.5706 9.10385C11.7957 9.34557 12.1098 9.1359 12.1791 9.05203C12.2088 9.0101 12.2831 8.98303 12.335 9.03725C12.5106 9.16314 12.8199 9.10381 12.8842 8.88185C12.9213 8.6648 12.951 8.44035 12.9584 8.20855C12.8149 8.25298 12.7086 8.2825 12.6987 8.34174L12.669 8.5341C12.6567 8.59579 12.5329 8.5982 12.528 8.51927C12.4736 8.27262 12.2485 8.24056 12.1124 8.6229C12.0208 8.69689 11.8552 8.71171 11.8378 8.60073C11.86 8.34419 11.7561 8.30965 11.5484 8.43051C11.4816 7.92241 11.4148 7.43657 11.348 6.92843C11.4346 6.92594 11.5138 6.99004 11.593 6.89139C11.5063 6.6226 11.3233 6.07253 11.2218 6.03305C11.1724 5.97389 11.1302 6.01088 11.066 6.02566C10.9572 6.0602 10.8557 6.15395 10.8878 6.33646C11.0165 7.11584 11.1006 7.7103 11.2293 8.48971C11.249 8.58097 11.1724 8.70175 11.0734 8.68942C10.9052 8.57599 10.8633 8.34664 10.5763 8.35644C10.3684 8.35893 10.1309 8.58338 10.1013 8.80052C10.0666 8.97307 10.0542 9.16048 10.1012 9.31102C10.2472 9.48611 10.4229 9.46892 10.5762 9.42943C10.7024 9.37766 10.8062 9.25186 10.8508 9.28142C10.8805 9.31846 10.8582 9.73272 10.2571 10.051C9.89347 10.2137 9.604 10.2508 9.44823 9.95476C9.35175 9.76976 9.45564 9.06681 9.21809 9.22965V9.22969Z" fill="white"/>
  <path fill-rule="evenodd" clip-rule="evenodd" d="M12.1978 7.3933C12.3388 7.34148 13.0068 6.57938 13.0068 6.57938C12.9721 6.54978 12.9411 6.52756 12.9065 6.49796C12.8694 6.46591 12.8731 6.43386 12.9065 6.40177C13.0722 6.30561 13.0191 6.0947 12.9325 5.99854C12.789 5.93436 12.6641 5.95536 12.5725 6.0022C12.4563 6.11321 12.4291 6.29075 12.5207 6.40177C12.6098 6.4437 12.6988 6.53375 12.6394 6.58307C12.3661 6.87412 11.6177 7.37607 11.7044 7.3933C11.7228 7.41796 12.183 7.41672 12.1978 7.3933ZM8.16406 10.0907C7.91356 10.4886 7.89174 11.0831 8.02998 11.2604C8.10343 11.3441 8.2241 11.3808 8.31338 11.3546C8.47077 11.2865 8.53964 10.9685 8.50229 10.8522C8.44974 10.7703 8.4084 10.7573 8.35593 10.827C8.24517 11.0512 8.1992 10.8974 8.1895 10.7721C8.17251 10.5345 8.19496 10.3156 8.22081 10.1423C8.24838 9.96472 8.2204 10.019 8.16406 10.0907ZM18.8687 9.45343C18.6265 8.93358 18.2912 8.41988 18.1845 8.22254C18.0778 8.02512 17.2724 6.85963 17.1539 6.72855C16.8922 6.41854 17.5787 6.85767 17.067 6.24213C16.8719 6.07523 16.8606 6.06505 16.6986 5.92887C16.6169 5.87108 16.4175 5.7655 16.3822 5.9405C16.3644 6.09482 16.374 6.17848 16.4 6.30698C16.4199 6.39263 16.5451 6.53608 16.6066 6.6192C17.4238 7.71444 18.1484 8.82048 18.8471 10.2111C18.9574 10.1588 18.9333 9.54041 18.8688 9.45343H18.8687Z" fill="white"/>
  <path fill-rule="evenodd" clip-rule="evenodd" d="M17.8041 11.1941C17.7565 11.2474 17.9217 11.4754 18.1364 11.4752C18.4955 11.4337 18.8116 11.2325 19.1043 10.7031C19.1825 10.5797 19.3201 10.3156 19.3241 10.1108C19.3515 8.9099 19.2639 7.97541 19.0834 7.10739C19.0718 7.02286 19.0789 6.92347 19.0932 6.89814C19.1165 6.87045 19.1953 6.89826 19.2372 6.82988C19.2986 6.7674 19.0742 6.24988 18.9463 6.05055C18.9009 5.96153 18.8851 5.90208 18.8099 6.06101C18.7308 6.19013 18.6777 6.41549 18.6839 6.62607C18.8552 7.80863 18.9079 8.84309 19.0198 10.0257C19.0289 10.14 19.012 10.3062 18.9358 10.3725C18.6538 10.6661 18.2468 11.0275 17.8041 11.1941ZM22.6546 11.1879C22.3969 11.3364 22.3966 11.5072 22.605 11.5134C22.9641 11.4719 23.3884 11.4421 23.6809 11.0015C23.7593 10.8781 23.8523 10.5442 23.8563 10.3394C23.8837 9.1385 23.8406 8.24212 23.6601 7.37419C23.6486 7.28961 23.6111 7.09502 23.6254 7.06965C23.6487 7.0102 23.7657 7.07613 23.8076 7.00771C23.8689 6.94526 23.5045 6.47847 23.3766 6.27915C23.3312 6.19017 23.3154 6.13072 23.2402 6.28961C23.1611 6.41877 23.1335 6.65048 23.1652 6.85471C23.3556 8.13878 23.4973 9.10345 23.5266 10.2415C23.5101 10.3496 23.5061 10.4078 23.4553 10.5439C23.3429 10.6876 23.2184 10.8671 23.1016 10.954C22.9849 11.0407 22.7358 11.1236 22.6546 11.1879V11.1879Z" fill="white"/>
  <path fill-rule="evenodd" clip-rule="evenodd" d="M22.849 10.0354C22.8461 9.73506 22.8533 9.47574 22.8434 9.25179C22.8334 9.0278 22.7938 8.84541 22.716 8.68644C22.6424 8.51596 22.6881 8.37899 22.6536 8.19739C22.619 8.01588 22.6275 7.74402 22.5754 7.52862C22.5611 7.44451 22.5172 7.1751 22.5308 7.14927C22.552 7.08915 22.6331 7.15114 22.6726 7.08147C22.7319 7.01704 22.4671 6.33381 22.3327 6.13872C22.2844 6.05124 22.1967 6.08122 22.0886 6.22342C21.9882 6.31704 22.0254 6.53049 22.0637 6.73351C22.3214 8.07417 22.5136 9.28762 22.4716 10.5638C22.4588 10.6724 22.8517 10.2402 22.849 10.0354ZM20.9453 8.37256C20.7832 8.36961 20.4438 8.0581 20.3447 7.87559C20.3073 7.77092 20.3313 7.66879 20.3643 7.60896C20.4243 7.57006 20.5167 7.52634 20.5857 7.56827C20.5857 7.56827 20.6572 7.66808 20.6434 7.68079C20.7319 7.72305 20.7694 7.69872 20.7784 7.66285C20.7844 7.59999 20.7523 7.56254 20.7519 7.49333C20.7894 7.30567 21.0045 7.27648 21.0856 7.39618C21.1449 7.46913 21.1666 7.6242 21.1756 7.72886C21.1746 7.78234 21.0878 7.7196 21.0385 7.73247C20.9891 7.74535 20.9772 7.80214 20.9734 7.8535C20.9644 7.9896 20.9483 8.20798 20.9453 8.37252V8.37256ZM17.9544 10.3683C17.999 9.96029 17.9379 9.2336 17.9338 8.99284C17.9174 8.42404 17.8243 7.32539 17.7799 7.14184C17.7299 6.79587 17.9226 7.17979 17.8959 6.97867C17.8335 6.6332 17.6413 6.399 17.4153 6.08255C17.3425 5.97958 17.345 5.95862 17.2325 6.10779C17.108 6.38928 17.2154 6.58296 17.2476 6.80222C17.4105 7.51658 17.5056 8.17385 17.5499 8.82361C17.5941 9.47337 17.6077 10.1759 17.5673 10.8603C17.6894 10.8651 17.8857 10.6633 17.9544 10.3683V10.3683Z" fill="white"/>
  <path fill-rule="evenodd" clip-rule="evenodd" d="M23.3994 9.71509C23.1137 9.23701 22.6824 8.7192 22.5672 8.52668C22.4521 8.33412 21.4777 7.0806 21.3535 6.9548C20.9971 6.58143 21.517 6.89402 21.2853 6.60564C21.0893 6.39107 21.0321 6.32373 20.8644 6.19469C20.7803 6.14051 20.7293 6.03701 20.7017 6.21338C20.6907 6.36832 20.6792 6.5476 20.6897 6.67817C20.6891 6.75079 20.7649 6.88717 20.83 6.96755C21.6942 8.02626 22.6368 9.10727 23.3956 10.4663C23.5036 10.4092 23.4677 9.79921 23.3994 9.71509Z" fill="white"/>
  <path fill-rule="evenodd" clip-rule="evenodd" d="M10.4359 8.83343C10.4154 8.86939 10.3696 8.91597 10.3849 8.96417C10.417 9.00752 10.4426 9.01632 10.4961 9.01869C10.5425 9.01869 10.6073 9.02961 10.6212 9.00233C10.6462 8.97493 10.6652 8.91892 10.6444 8.86611C10.5961 8.74571 10.4612 8.79054 10.4359 8.83343Z" fill="#1BA400"/>
  <path fill-rule="evenodd" clip-rule="evenodd" d="M20.0763 15.8026C20.4585 15.8166 20.7086 15.82 21.0485 15.8603C21.0485 15.8603 21.3416 15.8315 21.4463 15.8157C21.8887 15.7736 21.9083 16.4458 21.9083 16.4458C21.9035 16.84 21.7509 16.8606 21.556 16.9023C21.4447 16.9164 21.3862 16.8358 21.3277 16.75C21.2543 16.7806 21.1545 16.785 21.0336 16.7683C20.8743 16.7583 20.7151 16.759 20.5558 16.7491C20.3867 16.7342 20.2967 16.7666 20.1275 16.7518C20.0926 16.8064 20.0473 16.882 19.9438 16.8576C19.8577 16.8481 19.7557 16.6072 19.7858 16.4239C19.8479 16.2926 19.8309 16.3348 19.8244 16.2771C18.2619 16.2374 16.6844 16.1679 15.1517 16.1878C13.9525 16.1928 12.7681 16.2424 11.5838 16.292C10.9518 16.2821 10.4691 16.1828 10.1357 15.6966C10.1656 15.6966 11.748 15.7859 12.2108 15.7561C13.0667 15.7462 13.8479 15.6767 14.7188 15.6519C16.4355 15.6817 18.1374 15.6817 19.8541 15.8007C19.6898 15.6887 19.684 15.4241 19.9367 15.3595C19.9582 15.3447 19.9693 15.491 20.0071 15.4883C20.2093 15.4732 20.1206 15.7463 20.0762 15.8026L20.0763 15.8026ZM13.1839 6.36722C12.9237 7.10869 13.3329 7.91975 13.6167 7.84078C13.8214 7.92527 13.9517 7.53699 14.0355 7.1116C14.0928 6.99219 14.1361 6.97949 14.1656 7.04085C14.158 7.60653 14.2063 7.73184 14.3522 7.90355C14.6776 8.15387 14.9467 7.93552 14.9678 7.91443L15.2212 7.66184C15.2775 7.60267 15.3526 7.59923 15.4323 7.65133C15.5097 7.7215 15.4988 7.84265 15.6645 7.92668C15.804 7.98231 16.1021 7.93955 16.1712 7.81973C16.2642 7.66088 16.2865 7.60633 16.3295 7.54608C16.3959 7.45802 16.509 7.49718 16.509 7.52499C16.4984 7.57411 16.4321 7.62327 16.4774 7.7117C16.5562 7.7707 16.5745 7.73275 16.6211 7.71963C16.7862 7.64095 16.9101 7.28294 16.9101 7.28294C16.9174 7.14975 16.8426 7.16075 16.794 7.1882C16.7307 7.22681 16.7266 7.23914 16.6632 7.27775C16.5825 7.28971 16.4259 7.34306 16.3485 7.22357C16.2695 7.07988 16.2684 6.87939 16.208 6.73449C16.208 6.72394 16.1032 6.50622 16.2008 6.49227C16.25 6.50141 16.3551 6.52914 16.3718 6.44091C16.4234 6.35489 16.2612 6.11134 16.1501 5.98833C16.0537 5.88279 15.9202 5.87008 15.7912 5.97782C15.7009 6.06065 15.7139 6.15319 15.6962 6.24092C15.6732 6.34164 15.6781 6.46558 15.7807 6.59881C15.8708 6.77597 16.0352 7.00415 15.9812 7.325C15.9812 7.325 15.8852 7.47667 15.7178 7.45682C15.648 7.44167 15.535 7.41215 15.4745 6.96716C15.4288 6.63036 15.4853 6.15909 15.342 5.93817C15.2902 5.80477 15.2524 5.67594 15.1261 5.90413C15.0923 5.99372 14.9467 6.12969 15.0523 6.40936C15.1386 6.58664 15.1738 6.87519 15.1346 7.19629C15.0748 7.28751 15.0615 7.3184 14.983 7.40966C14.8729 7.52777 14.7533 7.49763 14.6617 7.4535C14.5761 7.396 14.5091 7.36627 14.4701 7.18359C14.4772 6.89242 14.4934 6.41575 14.44 6.31466C14.3613 6.15805 14.2316 6.21468 14.1761 6.26201C13.9098 6.50485 13.7782 6.91459 13.6977 7.24088C13.6239 7.47866 13.5452 7.41053 13.49 7.31458C13.3555 7.18886 13.3463 6.20563 13.1839 6.3673V6.36722Z" fill="white"/>
  <path fill-rule="evenodd" clip-rule="evenodd" d="M13.9662 7.97775C14.0843 7.8943 14.0291 7.83601 14.2058 8.01213C14.427 8.38919 14.5692 8.87757 14.5905 9.31023C14.5811 9.41685 14.6565 9.48431 14.691 9.46115C14.7115 9.21083 15.3219 8.86208 15.8817 8.8111C15.9673 8.79254 15.9257 8.62896 15.9396 8.54555C15.906 8.2357 16.1142 7.95359 16.406 7.93108C16.8032 7.98962 16.9354 8.20103 16.9421 8.52375C16.8992 9.14329 16.2519 9.24833 15.8883 9.29773C15.8325 9.31878 15.8092 9.34444 15.8883 9.37479L17.412 9.38168L17.4898 9.42644C17.4991 9.46268 17.4676 9.43246 17.4074 9.53123C17.3473 9.63 17.2586 9.85777 17.254 10.0099C16.8 10.1554 16.3304 10.2192 15.8532 10.2767C15.6874 10.3603 15.6052 10.4717 15.6392 10.5971C15.695 10.7362 16.0623 10.8751 16.0623 10.8817C16.132 10.9253 16.2145 11.0271 16.0425 11.2357C15.2993 11.2031 14.7233 10.8877 14.5239 10.4425C14.4638 10.3961 14.3991 10.4423 14.3576 10.5024C14.0674 10.8754 13.7819 11.2113 13.2872 11.3896C12.9921 11.4631 12.6901 11.3445 12.5475 11.1518C12.452 11.0422 12.4556 10.9211 12.4206 10.8949C12.2611 10.9652 10.8889 11.5466 11.0628 11.2758C11.3967 10.9193 11.9749 10.6576 12.4855 10.3058C12.5224 10.1879 12.5894 9.78922 12.7911 9.65935C12.8027 9.66031 12.7591 9.89352 12.7635 9.99183C12.7658 10.0725 12.7575 10.1042 12.7753 10.0834C12.8097 10.0615 13.4293 9.57607 13.4772 9.42723C13.5376 9.34187 13.4953 9.12568 13.4953 9.11912C13.3791 8.82052 13.2161 8.79516 13.1557 8.64681C13.1013 8.44973 13.1259 8.22478 13.2389 8.16209C13.3392 8.07129 13.458 8.0825 13.5676 8.18173C13.6928 8.29349 13.8039 8.51192 13.8361 8.67463C13.8146 8.73898 13.6723 8.63187 13.623 8.66383C13.7103 8.75401 13.7511 8.85806 13.7826 8.98535C13.8633 9.32617 13.8387 9.45866 13.7575 9.67903C13.4824 10.2557 13.1309 10.4278 12.8233 10.6415C12.8151 10.6444 12.8096 10.7878 12.9253 10.8654C12.9652 10.9071 13.1256 10.9286 13.3143 10.8683C13.6788 10.6701 14.0572 10.3049 14.2451 9.89813C14.2997 9.59043 14.224 9.26414 14.1438 8.97958C14.0229 8.70149 13.8805 8.30441 13.8805 8.29785C13.8758 8.12443 13.89 8.06427 13.9663 7.97775H13.9662ZM9.97677 6.37391C10.1522 6.45732 10.4819 6.42182 10.4679 6.13983C10.4679 6.11492 10.4616 6.03055 10.4591 6.00768C10.4233 5.92456 10.3256 5.94511 10.3035 6.03093C10.2965 6.05903 10.3159 6.10483 10.2904 6.11894C10.2757 6.13368 10.2197 6.12501 10.222 6.04712C10.222 6.02229 10.2037 5.99564 10.1926 5.97986C10.1815 5.97263 10.1745 5.97064 10.1544 5.97064C10.1299 5.9716 10.1303 5.97795 10.1169 5.99846C10.1112 6.0193 10.1034 6.03969 10.1034 6.06335C10.1003 6.09109 10.0898 6.10097 10.0694 6.10508C10.0465 6.10508 10.0517 6.10757 10.0332 6.09582C10.0222 6.08378 10.0084 6.07921 10.0084 6.05874C10.0084 6.03753 10.0036 6.00319 9.99718 5.9892C9.98747 5.97641 9.97186 5.97052 9.95429 5.96599C9.85852 5.96632 9.85186 6.07527 9.85739 6.11662C9.85019 6.12442 9.84615 6.31985 9.97677 6.37391Z" fill="white"/>
  <path fill-rule="evenodd" clip-rule="evenodd" d="M15.1203 8.54408C15.2957 8.62749 15.7132 8.57949 15.6115 8.31C15.6115 8.28509 15.6051 8.20068 15.6026 8.17785C15.5668 8.09473 15.4692 8.11528 15.447 8.2011C15.4401 8.2292 15.4594 8.275 15.4339 8.28911C15.4193 8.30385 15.3632 8.29518 15.3655 8.21729C15.3655 8.19246 15.3472 8.16581 15.3361 8.15003C15.3251 8.1428 15.318 8.14081 15.298 8.14081C15.2735 8.14177 15.2739 8.14812 15.2605 8.16863C15.2548 8.18947 15.247 8.20986 15.247 8.23352C15.2439 8.26126 15.2334 8.27114 15.2129 8.27525C15.1901 8.27525 15.1952 8.27774 15.1767 8.26599C15.1657 8.25395 15.152 8.24938 15.152 8.22891C15.152 8.2077 15.1471 8.17336 15.1407 8.15937C15.131 8.14658 15.1154 8.14069 15.0978 8.13616C15.0021 8.13649 14.9954 8.24544 15.0009 8.28679C14.9937 8.2946 14.9897 8.49002 15.1203 8.54408ZM18.1183 7.64604C18.2937 7.72945 18.6234 7.69395 18.6095 7.41196C18.6095 7.38705 18.6031 7.30269 18.6006 7.27981C18.5648 7.19669 18.4672 7.21724 18.445 7.30306C18.4381 7.33117 18.4574 7.37696 18.4319 7.39108C18.4172 7.40582 18.3612 7.39714 18.3635 7.31925C18.3635 7.29443 18.3452 7.26777 18.3341 7.25199C18.3231 7.24477 18.316 7.24278 18.2959 7.24278C18.2715 7.24373 18.2719 7.25008 18.2585 7.27059C18.2528 7.29144 18.2449 7.31182 18.2449 7.33549C18.2419 7.36322 18.2314 7.3731 18.2109 7.37721C18.1881 7.37721 18.1932 7.3797 18.1747 7.36795C18.1637 7.35591 18.1499 7.35135 18.1499 7.33088C18.1499 7.30966 18.1451 7.27533 18.1387 7.26134C18.129 7.24855 18.1134 7.24265 18.0958 7.23813C18.0001 7.23846 17.9934 7.3474 17.9989 7.38875C17.9917 7.39656 17.9877 7.59199 18.1183 7.64604ZM19.671 9.90172C19.3654 10.2452 19.5001 10.8132 19.5692 10.9356C19.6699 11.1367 19.7511 11.2656 19.9472 11.365C20.1258 11.4961 20.265 11.4142 20.3417 11.3224C20.5214 11.1367 20.5235 10.6625 20.6079 10.5685C20.6671 10.3959 20.8161 10.4254 20.8884 10.5019C20.9585 10.6024 21.0411 10.6671 21.1441 10.7219C21.3117 10.8693 21.5119 10.8962 21.7091 10.7619C21.8439 10.6865 21.9315 10.5891 22.0104 10.3957C22.0981 10.162 22.0492 9.08178 22.0317 8.44157C22.0249 8.39133 21.8574 7.56118 21.8574 7.55192C21.8574 7.54262 21.8353 7.12823 21.8169 7.0295C21.8136 6.98943 21.8037 6.97793 21.8458 6.983C21.8905 7.02049 21.8966 7.02286 21.9245 7.03519C21.9695 7.04341 22.0099 6.96689 21.9827 6.89652L21.5643 6.12706C21.5307 6.0941 21.4873 6.05789 21.4341 6.13636C21.3832 6.18083 21.329 6.26133 21.3307 6.36484C21.3431 6.54718 21.3753 6.73269 21.3876 6.91507L21.555 7.85139C21.6077 8.51883 21.6209 9.06509 21.6736 9.73253C21.6662 10.0151 21.5781 10.2616 21.4954 10.2971C21.4954 10.2971 21.3697 10.3698 21.2854 10.2895C21.224 10.265 20.9786 9.88158 20.9786 9.88158C20.8531 9.76687 20.7703 9.79967 20.681 9.88158C20.4348 10.1187 20.3233 10.5622 20.156 10.8682C20.1129 10.9365 19.9909 10.9949 19.8558 10.8632C19.5126 10.3958 19.7137 9.7307 19.671 9.90172ZM18.197 6.00898C18.3541 6.07458 18.465 6.39191 18.4288 6.54685C18.3975 6.73854 18.3142 6.94555 18.2543 6.9186C18.1892 6.89452 18.2987 6.72804 18.2361 6.55341C18.2013 6.43973 17.9869 6.23202 18.0095 6.17078C17.9653 6.04249 18.1007 5.98636 18.197 6.00898Z" fill="white"/>
  <path fill-rule="evenodd" clip-rule="evenodd" d="M20.1765 10.0895C20.2096 9.70844 20.1538 9.47607 20.1439 9.25208C20.134 9.02809 19.8898 7.31904 19.8403 7.14956C19.7806 6.82912 20.0776 7.10659 20.0452 6.92021C19.9424 6.68522 19.6866 6.34311 19.6063 6.13901C19.558 6.05157 19.5783 5.97377 19.4701 6.11601C19.3698 6.44301 19.335 6.7103 19.3733 6.91336C19.6309 8.25398 19.8951 9.36874 19.8532 10.645C19.9754 10.6458 20.1162 10.3662 20.1765 10.0896V10.0895ZM22.861 6.54888C23.0042 6.61987 23.0881 7.01757 23.0723 7.13121C23.0438 7.33876 22.9678 7.56287 22.9132 7.53368C22.8539 7.50761 22.9251 7.22591 22.8966 7.13831C22.8649 7.01525 22.6695 6.79039 22.6901 6.72408C22.6497 6.5852 22.7731 6.52442 22.861 6.54888ZM12.2152 9.36878C12.3522 9.42093 12.4326 9.71318 12.4174 9.79671C12.3901 9.94916 12.3173 10.1139 12.2652 10.0924C12.2084 10.0733 12.2766 9.86625 12.2493 9.8019C12.2377 9.64579 12.0476 9.56496 12.0515 9.49753C12.0161 9.37356 12.1311 9.35076 12.2152 9.36882V9.36878Z" fill="white"/>
  <path fill-rule="evenodd" clip-rule="evenodd" d="M15.527 9.80758C15.7038 9.81879 15.7922 9.95713 15.6265 10.0152C15.4631 10.0709 15.3061 10.1145 15.3054 10.35C15.3658 10.6781 15.2225 10.5655 15.137 10.5209C15.0362 10.4488 14.7536 10.2751 14.7133 9.90021C14.7072 9.81074 14.7772 9.73543 14.8898 9.73596C15.0595 9.78193 15.3098 9.78529 15.5269 9.80758H15.527Z" fill="#1B9D00"/>
  <path fill-rule="evenodd" clip-rule="evenodd" d="M8.55345 5.91522C8.7556 5.97601 8.76755 6.27228 8.75265 6.35888C8.72571 6.51699 8.65409 6.68771 8.60267 6.66545C8.5467 6.64561 8.60046 6.431 8.5736 6.36424C8.54362 6.27049 8.37282 6.09919 8.39218 6.0487C8.35417 5.94287 8.47059 5.89654 8.55345 5.91522ZM12.5458 7.31189C12.3907 7.39555 12.3305 7.64487 12.4271 7.7901C12.5173 7.91797 12.6598 7.87056 12.6788 7.87056C12.8307 7.88953 12.9209 7.58649 12.9209 7.58649C12.9209 7.58649 12.9257 7.5013 12.7452 7.6623C12.6693 7.6765 12.6598 7.64806 12.6408 7.60542C12.625 7.52654 12.6281 7.44765 12.6645 7.36873C12.6914 7.293 12.6328 7.25983 12.5458 7.31189ZM13.7092 5.80063C13.6313 5.85274 13.4761 6.013 13.4714 6.19767C13.4667 6.30184 13.4472 6.30151 13.5156 6.36781C13.565 6.43889 13.6148 6.4325 13.7146 6.38039C13.7719 6.33829 13.7913 6.31035 13.8106 6.23977C13.8343 6.12144 13.6851 6.2959 13.6661 6.16421C13.6329 6.04189 13.7287 5.99182 13.8189 5.8735C13.8219 5.79241 13.8202 5.73499 13.7092 5.80063ZM14.6465 5.96671C14.6129 6.04069 14.5726 6.42727 14.5793 6.42727C14.5525 6.54244 14.7002 6.59172 14.7674 6.44366C14.8681 6.17226 14.8681 6.05713 14.8748 5.94196C14.8434 5.76659 14.7249 5.77207 14.6465 5.96671ZM20.5559 8.96514C20.576 8.94504 21.3885 8.36923 21.3885 8.36923C21.4714 8.34021 21.4534 8.66608 21.4154 8.66384C21.4311 8.72853 20.6141 9.28205 20.5558 9.25975C20.5155 9.28877 20.4752 9.03659 20.5558 8.96514H20.5559ZM21.2966 8.96016C21.4398 9.03115 21.4969 9.44895 21.4811 9.56258C21.4861 9.78354 21.343 9.96074 21.2884 9.9316C21.229 9.90552 21.2936 9.65729 21.2651 9.56968C21.2334 9.44662 21.1118 9.21504 21.1323 9.14873C21.092 9.00985 21.2088 8.9357 21.2966 8.96016ZM16.4636 10.7596C16.5201 10.6772 16.6947 10.5586 16.6987 10.5586C16.7792 10.5185 16.8579 10.5902 16.8531 10.5854C16.8665 10.6658 16.8021 10.7406 16.8223 10.8477C16.8399 10.8909 16.8528 10.9389 16.9322 10.9206C17.0612 10.8194 17.1807 10.8129 17.3097 10.8064C17.4086 10.8124 17.4125 10.9793 17.35 10.9805C17.1118 11.0321 17.005 11.0957 16.8349 11.1604C16.7543 11.2073 16.6852 11.1479 16.6852 11.1412C16.6852 11.1345 16.6381 11.0956 16.671 10.9891C16.6768 10.9038 16.6424 10.857 16.571 10.8667C16.5173 10.8956 16.47 10.9148 16.4432 10.8533C16.4326 10.8078 16.4291 10.7857 16.4636 10.7596ZM22.1515 10.9846C22.1863 11.0288 22.2088 11.0696 22.1487 11.1422C22.0917 11.1943 22.0515 11.223 21.9946 11.275C21.9677 11.3208 21.9504 11.3902 22.0327 11.4123C22.1847 11.4549 22.5361 11.2277 22.5361 11.2229C22.5931 11.1803 22.5741 11.0998 22.5693 11.0998C22.5361 11.062 22.4612 11.0845 22.4109 11.0783C22.3869 11.0783 22.3082 11.0665 22.3457 10.997C22.3769 10.9539 22.3881 10.9274 22.4093 10.8742C22.433 10.8221 22.4126 10.7874 22.3271 10.759C22.2401 10.7432 22.2053 10.7511 22.1087 10.759C22.0565 10.77 22.0387 10.7933 22.0292 10.8564C22.0329 10.9522 22.0913 10.9467 22.1515 10.9846Z" fill="white"/>
  <path fill-rule="evenodd" clip-rule="evenodd" d="M16.4947 8.62743C16.4724 8.66584 16.3971 8.66397 16.3265 8.62328C16.2559 8.58259 16.2166 8.51836 16.2389 8.47992C16.2612 8.44147 16.3365 8.44338 16.4071 8.48415C16.4778 8.52492 16.517 8.58903 16.4947 8.62743ZM12.7859 6.40231C12.7436 6.41261 12.6885 6.37508 12.6626 6.31849C12.6368 6.2619 12.6501 6.20768 12.6923 6.19738C12.7344 6.18708 12.7896 6.22457 12.8155 6.28116C12.8414 6.33775 12.8281 6.39202 12.7859 6.40231Z" fill="#259F00"/>
  <path fill-rule="evenodd" clip-rule="evenodd" d="M20.1204 16.319C20.5098 16.3379 20.8756 16.3234 21.265 16.3423C21.3355 16.4021 21.2851 16.5489 21.2381 16.5384C21.1115 16.5352 21.0386 16.5321 20.9119 16.5289C20.9076 16.4052 20.5911 16.4255 20.6002 16.5328C20.4293 16.5533 20.2751 16.5269 20.1042 16.5206C20.0536 16.4579 20.0601 16.3449 20.1204 16.319H20.1204Z" fill="#209000"/>
</svg>